<mxfile host="app.diagrams.net" agent="Mozilla/5.0 (Windows NT 10.0; Win64; x64) AppleWebKit/537.36 (KHTML, like Gecko) Chrome/141.0.0.0 Safari/537.36 Edg/141.0.0.0" version="28.2.5">
  <diagram name="PÃ¡gina-1" id="ybxMegu20QLMTT6GTvBc">
    <mxGraphModel dx="591" dy="-383" grid="1" gridSize="10" guides="1" tooltips="1" connect="1" arrows="1" fold="1" page="1" pageScale="1" pageWidth="827" pageHeight="1169" math="0" shadow="0">
      <root>
        <mxCell id="0" />
        <mxCell id="1" parent="0" />
        <mxCell id="Gb_D7QVCogXqmU0bzWKU-259" style="edgeStyle=orthogonalEdgeStyle;rounded=0;orthogonalLoop=1;jettySize=auto;html=1;entryX=0.5;entryY=0;entryDx=0;entryDy=0;" edge="1" parent="1" source="Gb_D7QVCogXqmU0bzWKU-260" target="Gb_D7QVCogXqmU0bzWKU-282">
          <mxGeometry relative="1" as="geometry" />
        </mxCell>
        <mxCell id="Gb_D7QVCogXqmU0bzWKU-260" value="i" style="ellipse;whiteSpace=wrap;html=1;" vertex="1" parent="1">
          <mxGeometry x="1404" y="1260" width="120" height="80" as="geometry" />
        </mxCell>
        <mxCell id="Gb_D7QVCogXqmU0bzWKU-261" value="f" style="ellipse;whiteSpace=wrap;html=1;" vertex="1" parent="1">
          <mxGeometry x="1400" y="2160" width="120" height="80" as="geometry" />
        </mxCell>
        <mxCell id="Gb_D7QVCogXqmU0bzWKU-262" value="" style="edgeStyle=orthogonalEdgeStyle;rounded=0;orthogonalLoop=1;jettySize=auto;html=1;" edge="1" parent="1" source="Gb_D7QVCogXqmU0bzWKU-263" target="Gb_D7QVCogXqmU0bzWKU-267">
          <mxGeometry relative="1" as="geometry" />
        </mxCell>
        <mxCell id="Gb_D7QVCogXqmU0bzWKU-263" value="ler numero&lt;div&gt;&lt;br&gt;&lt;/div&gt;" style="shape=parallelogram;perimeter=parallelogramPerimeter;whiteSpace=wrap;html=1;fixedSize=1;" vertex="1" parent="1">
          <mxGeometry x="1356" y="1430" width="216" height="60" as="geometry" />
        </mxCell>
        <mxCell id="Gb_D7QVCogXqmU0bzWKU-264" value="" style="edgeStyle=orthogonalEdgeStyle;rounded=0;orthogonalLoop=1;jettySize=auto;html=1;" edge="1" parent="1" source="Gb_D7QVCogXqmU0bzWKU-267" target="Gb_D7QVCogXqmU0bzWKU-268">
          <mxGeometry relative="1" as="geometry" />
        </mxCell>
        <mxCell id="Gb_D7QVCogXqmU0bzWKU-265" value="sim" style="edgeLabel;html=1;align=center;verticalAlign=middle;resizable=0;points=[];" vertex="1" connectable="0" parent="Gb_D7QVCogXqmU0bzWKU-264">
          <mxGeometry x="-0.619" y="-2" relative="1" as="geometry">
            <mxPoint as="offset" />
          </mxGeometry>
        </mxCell>
        <mxCell id="Gb_D7QVCogXqmU0bzWKU-266" value="" style="edgeStyle=orthogonalEdgeStyle;rounded=0;orthogonalLoop=1;jettySize=auto;html=1;" edge="1" parent="1" source="Gb_D7QVCogXqmU0bzWKU-267" target="Gb_D7QVCogXqmU0bzWKU-272">
          <mxGeometry relative="1" as="geometry" />
        </mxCell>
        <mxCell id="Gb_D7QVCogXqmU0bzWKU-267" value="numero == 0" style="rhombus;whiteSpace=wrap;html=1;" vertex="1" parent="1">
          <mxGeometry x="1420" y="1530" width="80" height="80" as="geometry" />
        </mxCell>
        <mxCell id="Gb_D7QVCogXqmU0bzWKU-268" value="Escreva &quot;saindo do programa&quot;" style="shape=parallelogram;perimeter=parallelogramPerimeter;whiteSpace=wrap;html=1;fixedSize=1;" vertex="1" parent="1">
          <mxGeometry x="1620" y="1480" width="120" height="60" as="geometry" />
        </mxCell>
        <mxCell id="Gb_D7QVCogXqmU0bzWKU-269" value="" style="edgeStyle=orthogonalEdgeStyle;rounded=0;orthogonalLoop=1;jettySize=auto;html=1;" edge="1" parent="1" source="Gb_D7QVCogXqmU0bzWKU-272" target="Gb_D7QVCogXqmU0bzWKU-274">
          <mxGeometry relative="1" as="geometry" />
        </mxCell>
        <mxCell id="Gb_D7QVCogXqmU0bzWKU-270" value="sim" style="edgeLabel;html=1;align=center;verticalAlign=middle;resizable=0;points=[];" vertex="1" connectable="0" parent="Gb_D7QVCogXqmU0bzWKU-269">
          <mxGeometry x="-0.44" y="-2" relative="1" as="geometry">
            <mxPoint as="offset" />
          </mxGeometry>
        </mxCell>
        <mxCell id="Gb_D7QVCogXqmU0bzWKU-271" value="" style="edgeStyle=orthogonalEdgeStyle;rounded=0;orthogonalLoop=1;jettySize=auto;html=1;" edge="1" parent="1" source="Gb_D7QVCogXqmU0bzWKU-272" target="Gb_D7QVCogXqmU0bzWKU-277">
          <mxGeometry relative="1" as="geometry" />
        </mxCell>
        <mxCell id="Gb_D7QVCogXqmU0bzWKU-272" value="numero % 3 == 0&amp;nbsp;" style="rhombus;whiteSpace=wrap;html=1;" vertex="1" parent="1">
          <mxGeometry x="1390" y="1630" width="140" height="80" as="geometry" />
        </mxCell>
        <mxCell id="Gb_D7QVCogXqmU0bzWKU-273" style="edgeStyle=orthogonalEdgeStyle;rounded=0;orthogonalLoop=1;jettySize=auto;html=1;entryX=1;entryY=0.25;entryDx=0;entryDy=0;" edge="1" parent="1" source="Gb_D7QVCogXqmU0bzWKU-274" target="Gb_D7QVCogXqmU0bzWKU-263">
          <mxGeometry relative="1" as="geometry">
            <Array as="points">
              <mxPoint x="2230" y="1670" />
              <mxPoint x="2230" y="1396" />
            </Array>
          </mxGeometry>
        </mxCell>
        <mxCell id="Gb_D7QVCogXqmU0bzWKU-274" value="escreva&quot;O numero e multiplo de 3&quot;" style="shape=parallelogram;perimeter=parallelogramPerimeter;whiteSpace=wrap;html=1;fixedSize=1;" vertex="1" parent="1">
          <mxGeometry x="1620" y="1640" width="120" height="60" as="geometry" />
        </mxCell>
        <mxCell id="Gb_D7QVCogXqmU0bzWKU-275" value="" style="edgeStyle=orthogonalEdgeStyle;rounded=0;orthogonalLoop=1;jettySize=auto;html=1;" edge="1" parent="1" source="Gb_D7QVCogXqmU0bzWKU-277" target="Gb_D7QVCogXqmU0bzWKU-279">
          <mxGeometry relative="1" as="geometry" />
        </mxCell>
        <mxCell id="Gb_D7QVCogXqmU0bzWKU-276" value="sim" style="edgeLabel;html=1;align=center;verticalAlign=middle;resizable=0;points=[];" vertex="1" connectable="0" parent="Gb_D7QVCogXqmU0bzWKU-275">
          <mxGeometry x="0.1395" y="-1" relative="1" as="geometry">
            <mxPoint as="offset" />
          </mxGeometry>
        </mxCell>
        <mxCell id="Gb_D7QVCogXqmU0bzWKU-277" value="numero % 5 == 0&amp;nbsp;" style="rhombus;whiteSpace=wrap;html=1;" vertex="1" parent="1">
          <mxGeometry x="1390" y="1745" width="140" height="80" as="geometry" />
        </mxCell>
        <mxCell id="Gb_D7QVCogXqmU0bzWKU-278" style="edgeStyle=orthogonalEdgeStyle;rounded=0;orthogonalLoop=1;jettySize=auto;html=1;entryX=1;entryY=0.75;entryDx=0;entryDy=0;" edge="1" parent="1" source="Gb_D7QVCogXqmU0bzWKU-279" target="Gb_D7QVCogXqmU0bzWKU-263">
          <mxGeometry relative="1" as="geometry">
            <Array as="points">
              <mxPoint x="2370" y="1785" />
              <mxPoint x="2370" y="1423" />
            </Array>
          </mxGeometry>
        </mxCell>
        <mxCell id="Gb_D7QVCogXqmU0bzWKU-279" value="escreva&quot;O numero e multiplo de 5&quot;" style="shape=parallelogram;perimeter=parallelogramPerimeter;whiteSpace=wrap;html=1;fixedSize=1;" vertex="1" parent="1">
          <mxGeometry x="1610" y="1755" width="120" height="60" as="geometry" />
        </mxCell>
        <mxCell id="Gb_D7QVCogXqmU0bzWKU-280" style="edgeStyle=orthogonalEdgeStyle;rounded=0;orthogonalLoop=1;jettySize=auto;html=1;entryX=0.967;entryY=0.625;entryDx=0;entryDy=0;entryPerimeter=0;" edge="1" parent="1" source="Gb_D7QVCogXqmU0bzWKU-268" target="Gb_D7QVCogXqmU0bzWKU-261">
          <mxGeometry relative="1" as="geometry">
            <Array as="points">
              <mxPoint x="1870" y="1510" />
              <mxPoint x="1870" y="2210" />
            </Array>
          </mxGeometry>
        </mxCell>
        <mxCell id="Gb_D7QVCogXqmU0bzWKU-281" style="edgeStyle=orthogonalEdgeStyle;rounded=0;orthogonalLoop=1;jettySize=auto;html=1;" edge="1" parent="1" source="Gb_D7QVCogXqmU0bzWKU-282" target="Gb_D7QVCogXqmU0bzWKU-263">
          <mxGeometry relative="1" as="geometry">
            <mxPoint x="1450" y="1420" as="targetPoint" />
          </mxGeometry>
        </mxCell>
        <mxCell id="Gb_D7QVCogXqmU0bzWKU-282" value="numero = 0" style="rounded=0;whiteSpace=wrap;html=1;" vertex="1" parent="1">
          <mxGeometry x="1250" y="1340" width="120" height="60" as="geometry" />
        </mxCell>
      </root>
    </mxGraphModel>
  </diagram>
</mxfile>
